<svg xmlns="http://www.w3.org/2000/svg" id="packaging" width="131.357" height="130" viewBox="0 0 131.357 130">
    <defs>
        <style>
            .cls-1{fill:#ffaf40}.cls-2{fill:#ffc751}.cls-4{fill:#ff993a}.cls-7{fill:#5cceff}.cls-10{fill:#27b2ff}.cls-15{fill:#29e088}.cls-16{fill:#79ff79}
        </style>
    </defs>
    <g id="Group_53">
        <g id="Group_30">
            <g id="Group_26" transform="translate(0 15.503)">
                <g id="Group_25">
                    <g id="Group_23" transform="translate(20.818 30.822)">
                        <g id="Group_22">
                            <path id="Path_34" d="M166.834 264.24H85.175a4.031 4.031 0 0 1-4.031-4.031v-79.644h89.721v79.644a4.031 4.031 0 0 1-4.031 4.031z" class="cls-1" transform="translate(-81.144 -180.565)"/>
                            <path id="Path_35" d="M148.467 234.942h-33.06a5.138 5.138 0 1 0 0 10.276h33.06a5.138 5.138 0 1 0 0-10.276z" class="cls-2" transform="translate(-102.797 -220.991)"/>
                            <path id="Path_36" fill="#ffe059" d="M177.159 234.942h-9.441a5.138 5.138 0 1 0 0 10.276h9.441a5.138 5.138 0 1 0 0-10.276z" transform="translate(-141.687 -220.991)"/>
                            <path id="Path_37" d="M259.974 260.212a4.03 4.03 0 0 1-4.031 4.031h-54.937a66.689 66.689 0 0 0 50.1-83.673h8.872z" class="cls-4" transform="translate(-170.254 -180.569)"/>
                            <path id="Path_38" fill="#e86300" d="M81.143 180.565h89.721v13.951H81.143z" transform="translate(-81.143 -180.565)"/>
                            <g id="Group_21" transform="translate(44.726 47.299)">
                                <path id="Path_39" fill="#f9f8f2" d="M287.386 391.806H259.5a4.031 4.031 0 0 1-4.031-4.031v-18.817a4.031 4.031 0 0 1 4.031-4.031h27.882a4.031 4.031 0 0 1 4.031 4.031v18.818a4.031 4.031 0 0 1-4.027 4.03z" transform="translate(-255.473 -364.926)"/>
                                <path id="Path_40" d="M267.3 376.65v-11.725h-7.8a4.031 4.031 0 0 0-4.031 4.031v11.725h7.793a4.03 4.03 0 0 0 4.038-4.031z" class="cls-7" transform="translate(-255.473 -364.925)"/>
                                <path id="Path_41" fill="#f1eee0" d="M331.281 368.961v18.816a4.032 4.032 0 0 1-4.031 4.031H309.1a23.795 23.795 0 0 0 16.5-26.878h1.653a4.03 4.03 0 0 1 4.028 4.031z" transform="translate(-295.338 -364.929)"/>
                            </g>
                        </g>
                    </g>
                    <path id="Path_42" fill="#d84d00" d="M350.391 180.564v13.95h-27.768a38.818 38.818 0 0 0 19.79-13.951h7.978z" transform="translate(-239.852 -149.742)"/>
                    <path id="Path_43" d="M332.082 387.956h-7.936a3.634 3.634 0 1 1 0-7.268h7.936a3.634 3.634 0 1 1 0 7.268z" class="cls-10" transform="translate(-238.283 -298.523)"/>
                    <path id="Path_44" d="M332.082 432.266h-7.936a3.634 3.634 0 1 1 0-7.268h7.936a3.634 3.634 0 0 1 0 7.268z" class="cls-10" transform="translate(-238.283 -331.465)"/>
                    <path id="Path_45" fill="#fe255f" d="M235.31 234.94v17.844a2.571 2.571 0 0 1-2.571 2.571h-16.661a2.571 2.571 0 0 1-2.571-2.571V234.94z" transform="translate(-158.73 -190.168)"/>
                    <path id="Path_46" fill="#fc709b" d="M230.356 240.08a5.137 5.137 0 0 1-5.137 5.137h-11.711V234.94h11.711a5.136 5.136 0 0 1 5.137 5.14z" transform="translate(-158.731 -190.168)"/>
                    <path id="Path_47" fill="#f7a6c1" d="M220.16 240.078a5.138 5.138 0 0 1-5.138 5.138h-1.513V234.94h1.513a5.138 5.138 0 0 1 5.138 5.138z" transform="translate(-158.731 -190.168)"/>
                    <g id="Group_24">
                        <path id="Path_48" d="M414.439 61.661l-18.868 29.632 9.053 13.95 20.013-31.43a5.142 5.142 0 0 0-.5-6.182l-5.611-6.3a2.571 2.571 0 0 0-4.089.329z" class="cls-1" transform="translate(-294.085 -60.46)"/>
                        <path id="Path_49" d="M11 61.618L29.871 91.25l-9.053 13.95L.805 73.77a5.142 5.142 0 0 1 .5-6.182l5.611-6.3a2.571 2.571 0 0 1 4.084.33z" class="cls-1" transform="translate(-.001 -60.428)"/>
                    </g>
                </g>
                <path id="Path_50" d="M427.987 90.418l-20.011 31.431-7.9-12.168a36.926 36.926 0 0 0 26.138-26.874l1.273 1.429a5.139 5.139 0 0 1 .5 6.182z" class="cls-4" transform="translate(-297.436 -77.065)"/>
                <path id="Path_51" d="M80.938 129.425l-9.054 13.952-3.194-5.018a34.5 34.5 0 0 0 1.01-26.583z" class="cls-4" transform="translate(-51.067 -98.602)"/>
                <path id="Path_52" d="M28.267 121.082l-6.3-9.684a4.061 4.061 0 0 0-5.775-1.081l-.066.048a4.06 4.06 0 0 0-1.053 5.476l6.2 9.744a4.116 4.116 0 0 0 5.981 1.052l.074-.057a4.109 4.109 0 0 0 .939-5.5z" class="cls-2" transform="translate(-10.731 -96.949)"/>
            </g>
            <g id="Group_29">
                <path id="Path_53" fill="#008cff" d="M230.038 59.769h-10.986a2.967 2.967 0 0 0-2.967 2.967V65.1h-25.748a2.967 2.967 0 0 0-2.785 3.988l4.959 13.516a2.966 2.966 0 0 0 2.789 1.946h20.79v2.585h-21.92a2.967 2.967 0 1 0 0 5.933h24.887a2.967 2.967 0 0 0 2.967-2.967V65.7h8.019a2.967 2.967 0 0 0 0-5.933zm-35.453 11.265h21.5v7.583h-18.718z" transform="translate(-139.299 -44.435)"/>
                <path id="Path_54" d="M226.076 80.55H210.55a2.967 2.967 0 0 0 0 5.933h15.527a2.967 2.967 0 0 0 0-5.933z" class="cls-10" transform="translate(-154.326 -59.884)"/>
                <path id="Path_55" d="M230.684 80.55h-5.535a2.967 2.967 0 0 0 0 5.933h5.535a2.967 2.967 0 1 0 0-5.933z" class="cls-7" transform="translate(-165.18 -59.884)"/>
                <path id="Path_56" d="M240.4 133.233h-10.578a2.967 2.967 0 0 0 0 5.933H240.4a2.967 2.967 0 1 0 0-5.933z" class="cls-10" transform="translate(-168.654 -99.051)"/>
                <g id="Group_28" transform="translate(55.49 50.403)">
                    <g id="Group_27">
                        <circle id="Ellipse_3" cx="3.475" cy="3.475" r="3.475" class="cls-10"/>
                        <circle id="Ellipse_4" cx="2.392" cy="2.392" r="2.392" class="cls-7" transform="translate(.319 .303)"/>
                        <circle id="Ellipse_5" cx="3.475" cy="3.475" r="3.475" class="cls-10" transform="translate(17.313)"/>
                    </g>
                    <circle id="Ellipse_6" cx="2.392" cy="2.392" r="2.392" class="cls-7" transform="translate(17.646 .303)"/>
                </g>
                <path id="Path_58" d="M157.668 33.243a3.964 3.964 0 0 1-2.568-.943l-6.948-5.894a3.964 3.964 0 1 1 5.129-6.046l3.866 3.279 13.78-16.893a3.964 3.964 0 0 1 6.144 5.011L160.74 31.785a3.964 3.964 0 0 1-2.71 1.442q-.181.016-.362.016z" class="cls-15" transform="translate(-109.105 -3.932)"/>
                <path id="Path_59" d="M205.806 25.845l-5.872 7.2a3.964 3.964 0 0 0 6.144 5.012l5.872-7.2a3.964 3.964 0 0 0-6.144-5.012z" class="cls-16" transform="translate(-147.976 -18.13)"/>
            </g>
        </g>
        <g id="Group_52" transform="translate(28.29 15.536)">
            <g id="Group_37" transform="translate(58.172 15.388)">
                <g id="Group_36">
                    <g id="Group_35">
                        <g id="Group_32">
                            <g id="Group_31">
                                <path id="Path_60" fill="#73e1ff" d="M358.419 132.41a1.182 1.182 0 0 0 0-1.976 33.708 33.708 0 0 1-9.443-9.371 1.2 1.2 0 0 0-1.991 0 33.709 33.709 0 0 1-9.443 9.371 1.182 1.182 0 0 0 0 1.976 33.71 33.71 0 0 1 9.443 9.372 1.2 1.2 0 0 0 1.991 0 33.709 33.709 0 0 1 9.443-9.372z" transform="translate(-337.009 -120.533)"/>
                            </g>
                        </g>
                        <g id="Group_34" transform="translate(5.085 5.675)">
                            <g id="Group_33">
                                <path id="Path_61" d="M373.155 148.855a33.713 33.713 0 0 0-9.444 9.372 1.2 1.2 0 0 1-1.99 0 33.495 33.495 0 0 0-4.251-5.153q-.316-.313-.64-.618.428.036.866.036a10.233 10.233 0 0 0 10.261-9.837l.006.006a33.642 33.642 0 0 0 5.192 4.219 1.182 1.182 0 0 1 0 1.975z" class="cls-7" transform="translate(-356.829 -142.655)"/>
                            </g>
                        </g>
                    </g>
                </g>
            </g>
            <g id="Group_44" transform="translate(71.356)">
                <g id="Group_43">
                    <g id="Group_42">
                        <g id="Group_39">
                            <g id="Group_38">
                                <path id="Path_62" d="M399.7 66.823a.624.624 0 0 0 0-1.043 17.79 17.79 0 0 1-4.984-4.946.634.634 0 0 0-1.051 0 17.789 17.789 0 0 1-4.984 4.946.624.624 0 0 0 0 1.043 17.79 17.79 0 0 1 4.984 4.946.634.634 0 0 0 1.051 0 17.79 17.79 0 0 1 4.984-4.946z" class="cls-7" transform="translate(-388.398 -60.555)"/>
                            </g>
                        </g>
                        <g id="Group_41" transform="translate(2.684 2.996)">
                            <g id="Group_40">
                                <path id="Path_63" d="M407.478 75.5a17.8 17.8 0 0 0-4.984 4.947.634.634 0 0 1-1.051 0 17.673 17.673 0 0 0-2.244-2.72q-.167-.165-.338-.326.226.019.457.019a5.4 5.4 0 0 0 5.416-5.192 17.772 17.772 0 0 0 2.741 2.227.624.624 0 0 1 .003 1.045z" class="cls-10" transform="translate(-398.861 -72.231)"/>
                            </g>
                        </g>
                    </g>
                </g>
            </g>
            <g id="Group_51" transform="translate(0 12.392)">
                <g id="Group_50">
                    <g id="Group_49">
                        <g id="Group_46">
                            <g id="Group_45">
                                <path id="Path_64" d="M121.569 115.125a.624.624 0 0 0 0-1.043 17.789 17.789 0 0 1-4.984-4.946.634.634 0 0 0-1.051 0 17.789 17.789 0 0 1-4.984 4.946.624.624 0 0 0 0 1.043 17.789 17.789 0 0 1 4.984 4.946.634.634 0 0 0 1.051 0 17.789 17.789 0 0 1 4.984-4.946z" class="cls-16" transform="translate(-110.268 -108.857)"/>
                            </g>
                        </g>
                        <g id="Group_48" transform="translate(2.684 2.996)">
                            <g id="Group_47">
                                <path id="Path_65" d="M129.349 123.805a17.795 17.795 0 0 0-4.984 4.947.634.634 0 0 1-1.051 0 17.674 17.674 0 0 0-2.244-2.72q-.167-.165-.338-.326.226.019.457.019a5.4 5.4 0 0 0 5.416-5.192 17.77 17.77 0 0 0 2.741 2.227.624.624 0 0 1 0 1.042z" class="cls-15" transform="translate(-120.732 -120.533)"/>
                            </g>
                        </g>
                    </g>
                </g>
            </g>
        </g>
    </g>
    <g id="Group_54" transform="translate(84.795 97.668)">
        <path id="Path_66" d="M335.668 387.956h-1.522a3.634 3.634 0 0 1 0-7.268h1.522a3.634 3.634 0 1 1 0 7.268z" class="cls-7" transform="translate(-330.512 -380.688)"/>
        <path id="Path_67" d="M335.668 432.266h-1.522a3.634 3.634 0 0 1 0-7.268h1.522a3.634 3.634 0 1 1 0 7.268z" class="cls-7" transform="translate(-330.512 -413.63)"/>
    </g>
</svg>
