<svg xmlns="http://www.w3.org/2000/svg" width="151.002" height="151.008" viewBox="0 0 151.002 151.008">
    <g>
        <path fill="#e7eced" d="M35.581 103.595l-22.528 12.288a20.245 20.245 0 0 0-3.616 2.573 75.456 75.456 0 0 0 96.95.251 19.987 19.987 0 0 0-3.972-2.661l-24.124-12.061a9.2 9.2 0 0 1-5.091-8.229v-9.465a36.439 36.439 0 0 0 2.282-2.935 55.51 55.51 0 0 0 7.5-15.112 7.577 7.577 0 0 0 5.374-7.208v-10.1a7.543 7.543 0 0 0-2.524-5.6V30.729S88.836 8 58.056 8s-27.78 22.728-27.78 22.728v14.606a7.532 7.532 0 0 0-2.524 5.6v10.1a7.575 7.575 0 0 0 3.493 6.357 50.137 50.137 0 0 0 9.135 18.9v9.231a9.209 9.209 0 0 1-4.799 8.073z" transform="translate(17.451 14.795)"/>
        <g>
            <path fill="#556080" d="M76.794.011a75.456 75.456 0 0 0-49.875 133.218 20.062 20.062 0 0 1 3.581-2.547l22.529-12.289a9.2 9.2 0 0 0 4.8-8.077v-9.231a50.089 50.089 0 0 1-9.135-18.9 7.577 7.577 0 0 1-3.494-6.356v-10.1a7.543 7.543 0 0 1 2.524-5.6V45.522s-3-22.728 27.78-22.728 27.78 22.728 27.78 22.728v14.605a7.532 7.532 0 0 1 2.524 5.6v10.1a7.577 7.577 0 0 1-5.374 7.208 55.51 55.51 0 0 1-7.5 15.112 36.436 36.436 0 0 1-2.282 2.935v9.465a9.2 9.2 0 0 0 5.086 8.228l24.124 12.061a20.088 20.088 0 0 1 3.96 2.655A75.486 75.486 0 0 0 76.794.011z"/>
        </g>
    </g>
</svg>
